<svg xmlns="http://www.w3.org/2000/svg" version="1.1" xmlns:xlink="http://www.w3.org/1999/xlink" xmlns:svgjs="http://svgjs.dev/svgjs" width="1000" height="1125" viewBox="0 0 1000 1125"><g transform="matrix(1,0,0,1,0,0)"><svg viewBox="0 0 320 360" data-background-color="#398378" preserveAspectRatio="xMidYMid meet" height="1125" width="1000" xmlns="http://www.w3.org/2000/svg" xmlns:xlink="http://www.w3.org/1999/xlink"><g id="tight-bounds" transform="matrix(1,0,0,1,0,0)"><svg viewBox="0 0 320 360" height="360" width="320"><g><svg></svg></g><g><svg viewBox="0 0 320 360" height="360" width="320"><g><path xmlns="http://www.w3.org/2000/svg" d="M160 42.18c72.417 0 131.943 56.114 137.63 127.014h22.37c-1.137-17.82-5.308-34.882-12.133-51.185-7.962-18.957-19.716-36.398-34.502-50.805-14.787-14.787-31.848-26.161-50.806-34.503-20.095-8.341-40.948-12.891-62.559-12.891-21.611 0-42.464 4.171-62.559 12.512-18.957 7.962-36.398 19.716-50.806 34.503-14.787 14.787-26.161 31.848-34.502 50.805-6.825 16.303-10.995 33.744-12.133 51.185h22.37c5.687-70.521 65.213-126.635 137.63-126.635zM160 318.199c-72.417 0-131.943-56.114-137.63-127.014h-22.37c1.137 17.82 5.308 34.882 12.133 51.185 7.962 18.957 19.716 36.398 34.502 50.805 14.787 14.787 31.848 26.161 50.806 34.503 19.716 8.341 40.569 12.512 62.559 12.512 21.991 0 42.464-4.171 62.559-12.512 18.957-7.962 36.398-19.716 50.806-34.503 14.787-14.787 26.161-31.848 34.502-50.805 6.825-16.303 10.995-33.744 12.133-51.185h-22.37c-5.687 70.9-65.213 127.014-137.63 127.014z" fill="#ffffff" fill-rule="nonzero" stroke="none" stroke-width="1" stroke-linecap="butt" stroke-linejoin="miter" stroke-miterlimit="10" stroke-dasharray="" stroke-dashoffset="0" font-family="none" font-weight="none" font-size="none" text-anchor="none" style="mix-blend-mode: normal" data-fill-palette-color="tertiary"></path></g><g transform="matrix(1,0,0,1,56,109.41)"><svg viewBox="0 0 208 141.18" height="141.18" width="208"><g><svg viewBox="0 0 208 141.18" height="141.18" width="208"><g><svg viewBox="0 0 208 141.18" height="141.18" width="208"><g><svg viewBox="0 0 208 141.18" height="141.18" width="208"><g id="textblocktransform"><svg viewBox="0 0 208 141.18" height="141.18" width="208" id="textblock"><g><svg viewBox="0 0 208 141.18" height="141.18" width="208"><g transform="matrix(1,0,0,1,0,0)"><svg width="208" viewBox="3.799999952316284 -27.149999618530273 40 27.149999618530273" height="141.18" data-palette-color="#ffffff"><path d="M7.75 0L3.8 0 3.8-26.7 6.9-26.7 7.75-23.75Q9.75-25.15 12.23-26.15 14.7-27.15 17.75-27.15L17.75-27.15Q20.25-27.15 22.03-26.03 23.8-24.9 24.7-23.2L24.7-23.2Q25.95-24.1 27.73-25 29.5-25.9 31.53-26.53 33.55-27.15 35.45-27.15L35.45-27.15Q38.35-27.15 40.2-25.93 42.05-24.7 42.93-22.63 43.8-20.55 43.8-18L43.8-18 43.8 0 39.85 0 39.85-17.7Q39.85-19.4 39.18-20.73 38.5-22.05 37.25-22.8 36-23.55 34.2-23.55L34.2-23.55Q31.95-23.55 29.6-22.7 27.25-21.85 25.25-20.65L25.25-20.65Q25.5-19.9 25.63-19.18 25.75-18.45 25.75-17.65L25.75-17.65 25.75 0 21.8 0 21.8-17.7Q21.8-19.4 21.13-20.73 20.45-22.05 19.23-22.8 18-23.55 16.2-23.55L16.2-23.55Q14.55-23.55 13.13-23.23 11.7-22.9 10.43-22.33 9.15-21.75 7.75-20.95L7.75-20.95 7.75 0Z" opacity="1" transform="matrix(1,0,0,1,0,0)" fill="#ffffff" class="wordmark-text-0" data-fill-palette-color="primary" id="text-0"></path></svg></g></svg></g></svg></g></svg></g></svg></g></svg></g></svg></g></svg></g><defs></defs></svg><rect width="320" height="360" fill="none" stroke="none" visibility="hidden"></rect></g></svg></g></svg>