<svg xmlns="http://www.w3.org/2000/svg" version="1.1" xmlns:xlink="http://www.w3.org/1999/xlink" xmlns:svgjs="http://svgjs.dev/svgjs" width="2000" height="1500" viewBox="0 0 2000 1500"><rect width="2000" height="1500" fill="#c9efc7"></rect><g transform="matrix(0.75,0,0,0.75,249.090909090909,282.7536437246963)"><svg viewBox="0 0 396 247" data-background-color="#c9efc7" preserveAspectRatio="xMidYMid meet" height="1247" width="2000" xmlns="http://www.w3.org/2000/svg" xmlns:xlink="http://www.w3.org/1999/xlink"><g id="tight-bounds" transform="matrix(1,0,0,1,0.2400000000000091,-0.09999999999999432)"><svg viewBox="0 0 395.52 247.2" height="247.2" width="395.52"><g><svg></svg></g><g><svg viewBox="0 0 395.52 247.2" height="247.2" width="395.52"><g transform="matrix(1,0,0,1,75.54432,71.83414376642119)"><svg viewBox="0 0 244.43135999999998 103.5317124671576" height="103.5317124671576" width="244.43135999999998"><g><svg viewBox="0 0 244.43135999999998 103.5317124671576" height="103.5317124671576" width="244.43135999999998"><g><svg viewBox="0 0 244.43135999999998 103.5317124671576" height="103.5317124671576" width="244.43135999999998"><g><svg viewBox="0 0 244.43135999999998 103.5317124671576" height="103.5317124671576" width="244.43135999999998"><g><svg viewBox="0 0 244.43135999999998 103.5317124671576" height="103.5317124671576" width="244.43135999999998"><g><svg viewBox="0 0 244.43135999999998 59.45865396185678" height="59.45865396185678" width="244.43135999999998"><g transform="matrix(1,0,0,1,0,0)"><svg width="244.43135999999998" viewBox="-0.45000001788139343 -29.399999618530273 138.94000244140625 33.79999923706055" height="59.45865396185678" data-palette-color="#454545"><path d="M10.6-4.05L10.6-4.05Q6.1 4.4 2.1 4.4L2.1 4.4Q-0.45 4.4-0.45 1.8L-0.45 1.8Q-0.45 0.25 0.75-1.65L0.75-1.65Q2.8-4.85 7.13-9.53 11.45-14.2 14.45-16.95L14.45-16.95 16.35-23.4Q13.85-21.05 9.85-20.65L9.85-20.65Q9.35-20.6 9.33-20.95 9.3-21.3 9.75-21.4L9.75-21.4 9.95-21.45Q12.1-21.65 14.38-23.7 16.65-25.75 17.8-28.4L17.8-28.4Q18-29.05 19.55-29.03 21.1-29 21.05-28.4L21.05-28.4 17.6-19.85Q24.4-25.6 27.35-25.75L27.35-25.75Q27.7-25.75 28.05-25.75L28.05-25.75Q32-25.75 33.5-23.15L33.5-23.15Q34.8-20.95 34.8-18L34.8-18Q34.8-13.6 32.1-5.4L32.1-5.4Q31.65-3.95 31.73-3.93 31.8-3.9 32-4.23 32.2-4.55 32.63-5.2 33.05-5.85 34.65-8.5L34.65-8.5Q40.4-18.15 46.35-24.6L46.35-24.6Q48.3-26.65 50.25-26.65L50.25-26.65Q51.4-26.65 52-25.85 52.6-25.05 52.6-24.1 52.6-23.15 52.18-21.45 51.75-19.75 49.6-14.35L49.6-14.35Q46.95-7.75 46.95-3.55L46.95-3.55Q46.95-0.3 48.75-0.3L48.75-0.3Q50.05-0.3 52.2-1.95L52.2-1.95Q55.5-4.7 57.5-7.4L57.5-7.4Q57.75-7.75 57.98-7.55 58.2-7.35 58.2-7.23 58.2-7.1 58.1-7L58.1-7Q57.15-5.5 55.1-3.4L55.1-3.4Q51.75 0.15 49.7 0.8L49.7 0.8Q48.7 1.15 47.75 1.15L47.75 1.15Q44.45 1.1 44.45-3.6L44.45-3.6Q44.45-6.05 45.05-8.35 45.65-10.65 46.03-11.9 46.4-13.15 47-14.83 47.6-16.5 48-17.4L48-17.4Q49.3-20.65 49.6-21.45 49.9-22.25 49.9-22.83 49.9-23.4 49.6-23.63 49.3-23.85 48.8-23.85 48.3-23.85 47.25-22.95L47.25-22.95Q43.4-19.65 38.58-12.55 33.75-5.45 31.8-1.4L31.8-1.4Q31.4-0.55 31-0.55 30.6-0.55 30.15-1.28 29.7-2 29.7-2.33 29.7-2.65 29.75-2.75L29.75-2.75Q31.05-6.05 31.63-9.8 32.2-13.55 32.2-15.95L32.2-15.95Q32.2-24.4 28.55-24.4L28.55-24.4Q25.15-24.4 16.2-16.2L16.2-16.2Q15.75-14.9 14.25-11.5L14.25-11.5Q12.2-7.05 10.6-4.05ZM2.25 2.7L2.25 2.7Q5.35 2.7 9.85-5.95L9.85-5.95Q12.35-10.75 13.45-13.75L13.45-13.75Q10.8-11.25 7.6-7.63 4.4-4 3.05-2.2L3.05-2.2Q1.3 0.15 1.3 1.43 1.3 2.7 2.25 2.7ZM59.3 0.55L59.3 0.55Q58.5 0.55 57.57 0.08 56.65-0.4 56-1.28 55.35-2.15 55.35-3.15 55.35-4.15 55.8-5.05L55.8-5.05Q56.8-7.15 59.02-9.13 61.25-11.1 63.65-12.5 66.05-13.9 67.45-14.25 68.85-14.6 70.17-14.6 71.5-14.6 72.45-13.93 73.4-13.25 73.4-12.5L73.4-12.5Q73.4-12.25 73.35-12.2 73.3-12.15 73.1-12.25L73.1-12.25Q72.5-13.2 70.62-13.2 68.75-13.2 66.37-11.98 64-10.75 61.9-8.9L61.9-8.9Q60.15-7.25 58.82-5.18 57.5-3.1 57.5-2.15L57.5-2.15Q57.5-0.3 58.55-0.3 59.6-0.3 61.75-2L61.75-2Q65.3-5 66.6-6.4L66.6-6.4Q71.2-11.35 71.55-11.35L71.55-11.35Q72.15-11.35 73-11 73.85-10.65 73.55-10.15L73.55-10.15Q71-6.55 70.55-2.9L70.55-2.9Q70.5-2.45 70.5-1.75 70.5-1.05 70.9-0.6L70.9-0.6Q71.65 0.2 72.95-0.5 74.25-1.2 76.57-3.3 78.9-5.4 80.3-7.4L80.3-7.4Q80.5-7.65 80.75-7.53 81-7.4 81-7.3L81-7.3Q81-6.55 78.62-4.03 76.25-1.5 75-0.6L75-0.6Q72.65 1.15 70.65 1.15L70.65 1.15Q68.75 1.15 68.1-0.75L68.1-0.75Q67.95-1.35 67.95-2.1L67.95-2.1Q67.95-4.35 68.9-6.85L68.9-6.85Q68.7-6.75 67.05-4.85 65.4-2.95 63.22-1.2 61.05 0.55 59.3 0.55ZM93.55-14.2L93.55-14.2Q94.7-14.2 94.7-12.98 94.7-11.75 93.55-9.6 92.4-7.45 91.85-6.1L91.85-6.1Q90.9-3.8 90.9-2.43 90.9-1.05 91.3-0.6L91.3-0.6Q92.05 0.2 93.35-0.53 94.65-1.25 96.97-3.33 99.3-5.4 100.7-7.4L100.7-7.4Q100.9-7.65 101.17-7.53 101.45-7.4 101.45-7.28 101.45-7.15 101.35-7L101.35-7Q100.6-5.65 98.65-3.55 96.7-1.45 94.9-0.18 93.1 1.1 91.35 1.1L91.35 1.1Q89.65 1.05 88.95 0.33 88.25-0.4 88.25-1.5 88.25-2.6 88.45-3.63 88.65-4.65 89.2-6L89.2-6Q90.1-8.15 90.77-9.35 91.45-10.55 91.45-10.93 91.45-11.3 91.05-11.3L91.05-11.3Q90.25-11.3 88-9.35L88-9.35Q86.45-7.9 83.42-3.88 80.4 0.15 80 0.4L80 0.4Q78.2 1.3 77.75 1.3 77.3 1.3 77.3 1.15 77.3 1 77.4 0.73 77.5 0.45 78.37-2 79.25-4.45 80.27-7.38 81.3-10.3 81.52-10.9 81.75-11.5 81.82-11.93 81.9-12.35 82-12.65 82.1-12.95 82.37-13.33 82.65-13.7 83.1-13.73 83.55-13.75 84.25-13.63 84.95-13.5 84.95-13L84.95-13Q84.95-12.65 84.4-11.48 83.85-10.3 81.25-3.4L81.25-3.4Q83.05-5.6 85.8-8.47 88.55-11.35 90.45-12.85L90.45-12.85Q92.35-14.2 93.55-14.2ZM114.09-13.5L114.09-13.5Q114.99-13.5 116.24-12.58 117.49-11.65 117.64-10.75L117.64-10.75Q117.69-10.4 117.69-10.1L117.69-10.1Q117.69-7.85 115.49-5.28 113.29-2.7 110.54-0.9L110.54-0.9Q106.29 2 102.09 2L102.09 2Q100.39 2 99.39 1.55L99.39 1.55Q98.59 1.15 101.39 1.15L101.39 1.15Q104.44 1.15 109.29-2.45L109.29-2.45Q113.99-5.75 114.99-10.35L114.99-10.35Q115.14-11.05 114.97-11.78 114.79-12.5 114.09-12.5L114.09-12.5Q111.84-12.5 108.19-9.35L108.19-9.35Q106.64-8.05 105.02-5.85 103.39-3.65 103.39-2.25L103.39-2.25Q103.39-2.05 103.47-1.83 103.54-1.6 103.29-1.1L103.29-1.1Q102.64 0.2 101.44-1.25L101.44-1.25Q101.14-2 101.14-2.8L101.14-2.8Q101.14-5.1 101.84-7.65L101.84-7.65Q101.64-7.45 100.97-6.43 100.29-5.4 99.39-4.4L99.39-4.4Q98.94-3.9 98.69-4.4L98.69-4.4Q98.64-4.5 98.64-4.67 98.64-4.85 98.84-5.1L98.84-5.1Q102.74-9.95 103.39-11.4L103.39-11.4Q104.29-13.9 106.14-17.93 107.99-21.95 109.54-24.35L109.54-24.35Q112.74-29.4 116.14-29.4L116.14-29.4Q116.74-29.4 117.39-29.25L117.39-29.25 118.39-28.9Q119.84-28.05 119.84-26.73 119.84-25.4 119.04-23.85L119.04-23.85Q117.74-21.2 113.44-17.18 109.14-13.15 105.09-10.35L105.09-10.35Q104.09-8.55 103.54-5.65L103.54-5.65Q105.39-8.4 108.37-10.95 111.34-13.5 114.09-13.5ZM112.49-18L112.49-18Q118.44-24 118.44-26.9L118.44-26.9Q118.44-28.1 117.54-28.1L117.54-28.1Q116.84-28.1 115.64-27.2L115.64-27.2Q110.49-23.25 105.64-12.35L105.64-12.35Q109.04-14.6 112.49-18ZM129.94-5.5L129.94-5.5Q130.84-7.35 130.84-8.35 130.84-9.35 130.62-9.93 130.39-10.5 130.82-10.9 131.24-11.3 131.89-11.2L131.89-11.2Q132.89-10.95 132.89-8.95 132.89-6.95 130.54-3.7L130.54-3.7Q130.59-2.35 131.94-2.35 133.29-2.35 136.04-5.25L136.04-5.25Q137.34-6.75 137.67-7.2 137.99-7.65 138.24-7.53 138.49-7.4 138.49-7.3L138.49-7.3Q138.49-6.8 136.69-4.7L136.69-4.7Q133.84-1.2 131.64-1.2L131.64-1.2Q130.19-1.2 129.59-2.45L129.59-2.45Q128.59-1.4 127.64-0.5L127.64-0.5Q125.69 1.15 123.29 1.15L123.29 1.15Q121.94 1.15 121.04 0.5L121.04 0.5Q119.29-0.55 119.29-3.25L119.29-3.25Q119.29-6.2 121.29-9.25L121.29-9.25Q122.44-11.05 123.99-12.4L123.99-12.4Q126.44-14.55 128.64-14.55L128.64-14.55Q129.19-14.55 129.69-14.4L129.69-14.4Q131.19-13.9 131.19-12.5L131.19-12.5Q131.19-11.35 130.59-11.35L130.59-11.35Q130.34-11.45 130.34-12.1L130.34-12.1Q130.34-13 129.34-13L129.34-13Q127.59-13 124.84-9.8 122.09-6.6 121.54-3.35L121.54-3.35Q121.44-2.8 121.44-2.13 121.44-1.45 121.89-0.58 122.34 0.3 123.57 0.3 124.79 0.3 126.24-0.8 127.69-1.9 128.84-3.6L128.84-3.6 128.69-3.9Q128.49-4.7 128.89-5.2 129.29-5.7 129.94-5.5Z" opacity="1" transform="matrix(1,0,0,1,0,0)" fill="#454545" class="undefined-text-0" data-fill-palette-color="primary" id="text-0"></path></svg></g></svg></g><g transform="matrix(1,0,0,1,0,73.49541515455608)"><svg viewBox="0 0 244.43135999999998 30.036297312601526" height="30.036297312601526" width="244.43135999999998"><g transform="matrix(1,0,0,1,0,0)"><svg width="244.43135999999998" viewBox="5.650000095367432 -40.400001525878906 430.8600158691406 52.95000076293945" height="30.036297312601526" data-palette-color="#454545"><path d="M9.5-3.55L25.9-3.55 25.9 0 5.65 0 5.65-37.9 9.5-37.9 9.5-3.55ZM34.85-13.95L34.85-13.85Q34.85-8.8 37.15-5.7 39.45-2.6 44.5-2.6L44.5-2.6Q48.15-2.6 52.6-4.65L52.6-4.65 53.8-1.45Q49.4 0.85 44.3 0.85L44.3 0.85Q37.95 0.85 34.47-3.15 31-7.15 31-13.8L31-13.8Q31-18.4 32.6-21.65 34.2-24.9 36.97-26.58 39.75-28.25 43.2-28.25L43.2-28.25Q48.45-28.25 51.45-24.95 54.45-21.65 54.5-15.4L54.5-15.4 54.5-13.95 34.85-13.95ZM43.2-24.8Q39.95-24.8 37.82-22.93 35.7-21.05 35.1-17.3L35.1-17.3 50.6-17.3Q50.3-21.15 48.5-22.98 46.7-24.8 43.2-24.8L43.2-24.8ZM69.45-27.45Q73.55-27.45 75.67-25.98 77.8-24.5 78.52-22.03 79.25-19.55 79.25-15.8L79.25-15.8 79.25 0 75.55 0 75.55-2.85Q73.55-1 71.62-0.18 69.7 0.65 67.5 0.65L67.5 0.65Q65.05 0.65 63-0.48 60.95-1.6 59.72-3.7 58.5-5.8 58.5-8.7L58.5-8.7Q58.5-13.2 61.3-15.68 64.09-18.15 68.8-18.15L68.8-18.15Q70.5-18.15 72.27-17.73 74.05-17.3 75.55-16.5L75.55-16.5Q75.5-19.2 75-20.8 74.5-22.4 73.05-23.28 71.59-24.15 68.7-24.15L68.7-24.15 65.5-24.15 65.5-27.45 69.45-27.45ZM67.8-2.7Q71.75-2.7 75.55-6.15L75.55-6.15 75.55-13.35Q72.7-14.85 69.15-14.85L69.15-14.85Q66.25-14.85 64.27-13.43 62.3-12 62.3-8.7L62.3-8.7Q62.3-5.55 63.97-4.13 65.64-2.7 67.8-2.7L67.8-2.7ZM99.49-28.05L100.64-28.05 100.64-24.55 99.49-24.55Q95.09-24.55 90.94-20.85L90.94-20.85 90.94 0 87.24 0 87.24-27.45 90.94-27.45 90.94-24.25Q92.89-26.05 95.09-27.05 97.29-28.05 99.49-28.05L99.49-28.05ZM119.14-28.05Q124.14-28.05 126.52-25.43 128.89-22.8 128.89-16.6L128.89-16.6 128.89 0 125.19 0 125.19-16.6Q125.19-20.95 123.79-22.75 122.39-24.55 118.84-24.55L118.84-24.55Q114.64-24.55 110.59-20.9L110.59-20.9 110.59 0 106.89 0 106.89-27.45 110.59-27.45 110.59-24.35Q112.54-26.1 114.74-27.08 116.94-28.05 119.14-28.05L119.14-28.05ZM138.14-32.85L138.14-40.4 141.84-40.4 141.84-32.85 138.14-32.85ZM138.14 0L138.14-27.45 141.84-27.45 141.84 0 138.14 0ZM163.59-28.05Q168.59-28.05 170.96-25.43 173.34-22.8 173.34-16.6L173.34-16.6 173.34 0 169.64 0 169.64-16.6Q169.64-20.95 168.24-22.75 166.84-24.55 163.28-24.55L163.28-24.55Q159.09-24.55 155.03-20.9L155.03-20.9 155.03 0 151.34 0 151.34-27.45 155.03-27.45 155.03-24.35Q156.99-26.1 159.19-27.08 161.39-28.05 163.59-28.05L163.59-28.05ZM201.08-27.45L204.78-27.45 204.78 0.75Q204.78 4.45 203.83 7 202.88 9.55 200.36 11.05 197.83 12.55 193.28 12.55L193.28 12.55Q190.33 12.55 188.21 12.15 186.08 11.75 183.68 10.75L183.68 10.75 183.68 6.9Q185.83 7.9 188.03 8.45 190.23 9 192.18 9L192.18 9Q196.08 9 198.01 8 199.93 7 200.51 5.18 201.08 3.35 201.08 0.25L201.08 0.25 201.08-3.7Q196.93-0.15 192.98-0.15L192.98-0.15Q189.38-0.15 186.66-1.78 183.93-3.4 182.41-6.58 180.88-9.75 180.88-14.25L180.88-14.25Q180.88-21.1 184.18-24.68 187.48-28.25 192.98-28.25L192.98-28.25Q196.98-28.25 201.08-24.75L201.08-24.75 201.08-27.45ZM193.28-3.7Q197.23-3.7 201.08-7.05L201.08-7.05 201.08-21.35Q197.18-24.75 193.28-24.75L193.28-24.75Q189.13-24.75 186.93-21.95 184.73-19.15 184.73-14.25L184.73-14.25Q184.73-9.2 186.91-6.45 189.08-3.7 193.28-3.7L193.28-3.7ZM244.08-19.25Q250.83-17.05 250.83-10.2L250.83-10.2Q250.83-5.05 247.78-2.53 244.73 0 237.63 0L237.63 0 225.18 0 225.18-37.9 237.63-37.9Q244.08-37.9 246.7-35.43 249.33-32.95 249.33-27.75L249.33-27.75Q249.33-21.6 244.08-19.25L244.08-19.25ZM229.03-34.55L229.03-20.7 237.63-20.7Q241.53-20.7 243.45-22.43 245.38-24.15 245.38-27.75L245.38-27.75Q245.38-31.4 243.65-32.98 241.93-34.55 237.63-34.55L237.63-34.55 229.03-34.55ZM246.88-10.4Q246.88-14 244.55-15.68 242.23-17.35 237.63-17.35L237.63-17.35 229.03-17.35 229.03-3.35 237.63-3.35Q242.73-3.35 244.8-5.03 246.88-6.7 246.88-10.4L246.88-10.4ZM276.93-27.45L280.73-27.45 268.23 4.45Q266.83 8 265.93 9.6 265.03 11.2 263.73 11.88 262.43 12.55 260.03 12.55L260.03 12.55Q258.78 12.55 257.53 12.25L257.53 12.25 257.53 8.8Q258.58 9 259.98 9L259.98 9Q261.13 9 261.85 8.55 262.58 8.1 263.18 7.03 263.78 5.95 264.68 3.7L264.68 3.7 266.18-0.15 255.48-27.45 259.38-27.45 268.08-5 276.93-27.45ZM310.82-37.9Q319.92-37.9 324.55-33.08 329.17-28.25 329.17-18.9L329.17-18.9Q329.17-9.5 324.57-4.75 319.97 0 310.82 0L310.82 0 298.37 0 298.37-37.9 310.82-37.9ZM310.82-3.45Q318.02-3.45 321.65-7.2 325.27-10.95 325.27-19.05L325.27-19.05Q325.27-26.95 321.6-30.7 317.92-34.45 310.82-34.45L310.82-34.45 302.22-34.45 302.22-3.45 310.82-3.45ZM348.82 0.85Q344.52 0.85 341.54-1.07 338.57-3 337.07-6.3 335.57-9.6 335.57-13.75L335.57-13.75Q335.57-17.85 337.07-21.15 338.57-24.45 341.54-26.35 344.52-28.25 348.82-28.25L348.82-28.25Q353.12-28.25 356.09-26.35 359.07-24.45 360.57-21.15 362.07-17.85 362.07-13.75L362.07-13.75Q362.07-9.6 360.57-6.3 359.07-3 356.09-1.07 353.12 0.85 348.82 0.85L348.82 0.85ZM348.82-2.65Q353.27-2.65 355.74-5.75 358.22-8.85 358.22-13.75L358.22-13.75Q358.22-18.6 355.74-21.7 353.27-24.8 348.82-24.8L348.82-24.8Q344.37-24.8 341.89-21.7 339.42-18.6 339.42-13.75L339.42-13.75Q339.42-8.85 341.89-5.75 344.37-2.65 348.82-2.65L348.82-2.65ZM369.87-32.85L369.87-40.4 373.56-40.4 373.56-32.85 369.87-32.85ZM369.87 0L369.87-27.45 373.56-27.45 373.56 0 369.87 0ZM395.31-28.05Q400.31-28.05 402.69-25.43 405.06-22.8 405.06-16.6L405.06-16.6 405.06 0 401.36 0 401.36-16.6Q401.36-20.95 399.96-22.75 398.56-24.55 395.01-24.55L395.01-24.55Q390.81-24.55 386.76-20.9L386.76-20.9 386.76 0 383.06 0 383.06-27.45 386.76-27.45 386.76-24.35Q388.71-26.1 390.91-27.08 393.11-28.05 395.31-28.05L395.31-28.05ZM432.81-27.45L436.51-27.45 436.51 0.75Q436.51 4.45 435.56 7 434.61 9.55 432.08 11.05 429.56 12.55 425.01 12.55L425.01 12.55Q422.06 12.55 419.94 12.15 417.81 11.75 415.41 10.75L415.41 10.75 415.41 6.9Q417.56 7.9 419.76 8.45 421.96 9 423.91 9L423.91 9Q427.81 9 429.74 8 431.66 7 432.24 5.18 432.81 3.35 432.81 0.25L432.81 0.25 432.81-3.7Q428.66-0.15 424.71-0.15L424.71-0.15Q421.11-0.15 418.38-1.78 415.66-3.4 414.13-6.58 412.61-9.75 412.61-14.25L412.61-14.25Q412.61-21.1 415.91-24.68 419.21-28.25 424.71-28.25L424.71-28.25Q428.71-28.25 432.81-24.75L432.81-24.75 432.81-27.45ZM425.01-3.7Q428.96-3.7 432.81-7.05L432.81-7.05 432.81-21.35Q428.91-24.75 425.01-24.75L425.01-24.75Q420.86-24.75 418.66-21.95 416.46-19.15 416.46-14.25L416.46-14.25Q416.46-9.2 418.63-6.45 420.81-3.7 425.01-3.7L425.01-3.7Z" opacity="1" transform="matrix(1,0,0,1,0,0)" fill="#454545" class="undefined-text-1" data-fill-palette-color="secondary" id="text-1"></path></svg></g></svg></g></svg></g></svg></g><g></g></svg></g></svg></g></svg></g><g><path d="M94.771 57.797A122.216 122.216 0 0 1 300.749 57.797L295.387 57.797A116.854 116.854 0 0 0 100.133 57.797L94.771 57.797M94.771 189.403A122.216 122.216 0 0 0 300.749 189.403L295.387 189.403A116.854 116.854 0 0 1 100.133 189.403L94.771 189.403" fill="#454545" stroke="transparent" data-fill-palette-color="tertiary"></path></g></svg></g><defs></defs></svg><rect width="395.52" height="247.2" fill="none" stroke="none" visibility="hidden"></rect></g></svg></g></svg>